<svg width="32" height="32" viewBox="0 0 32 32" fill="none" xmlns="http://www.w3.org/2000/svg">
<path d="M6.93656 3.7776C10.605 6.54117 14.5514 12.1436 15.9999 15.1502C17.4484 12.1436 21.395 6.54117 25.0634 3.7776C27.7109 1.78404 31.9999 0.241104 31.9999 5.1501C31.9999 6.13017 31.4398 13.3861 31.111 14.5644C29.969 18.6591 25.8064 19.7036 22.104 19.0716C28.5759 20.1766 30.2221 23.8365 26.6665 27.4966C19.914 34.448 16.961 25.7525 16.2049 23.5245C15.9869 22.8831 16.018 22.8684 15.7949 23.5245C15.0388 25.7525 12.086 34.448 5.3335 27.4966C1.77787 23.8365 3.42406 20.1766 9.89594 19.0716C6.1935 19.7036 2.03094 18.6591 0.888937 14.5644C0.560125 13.3861 0 6.13017 0 5.1501C0 0.241104 4.28956 1.78404 6.93656 3.7776Z" fill="white"/>
</svg>
